<mxfile host="app.diagrams.net" modified="2023-05-31T20:11:23.753Z" agent="Mozilla/5.0 (Windows NT 10.0; Win64; x64) AppleWebKit/537.36 (KHTML, like Gecko) Chrome/112.0.0.0 Safari/537.36 OPR/98.0.0.0" etag="XbBrcoMbMTF76PHHUhx9" version="21.3.6" type="github">
  <diagram name="Page-1" id="e7e014a7-5840-1c2e-5031-d8a46d1fe8dd">
    <mxGraphModel dx="1678" dy="954" grid="1" gridSize="10" guides="1" tooltips="1" connect="1" arrows="1" fold="1" page="1" pageScale="1" pageWidth="1169" pageHeight="826" background="none" math="0" shadow="0">
      <root>
        <mxCell id="0" />
        <mxCell id="1" parent="0" />
        <mxCell id="AZ1L6zL0LF5ouqsV8ztN-52" value="Pagamento" style="shape=umlFrame;whiteSpace=wrap;html=1;pointerEvents=0;recursiveResize=0;container=1;collapsible=0;width=160;rounded=1;sketch=1;hachureGap=4;jiggle=2;curveFitting=1;fontFamily=Architects Daughter;fontSource=https%3A%2F%2Ffonts.googleapis.com%2Fcss%3Ffamily%3DArchitects%2BDaughter;fontSize=20;movable=1;resizable=1;rotatable=1;deletable=1;editable=1;locked=0;connectable=1;fillColor=none;strokeColor=#333333;" parent="1" vertex="1">
          <mxGeometry y="3" width="1160" height="820" as="geometry" />
        </mxCell>
        <mxCell id="AZ1L6zL0LF5ouqsV8ztN-55" value="" style="html=1;points=[];perimeter=orthogonalPerimeter;outlineConnect=0;targetShapes=umlLifeline;portConstraint=eastwest;newEdgeStyle={&quot;edgeStyle&quot;:&quot;elbowEdgeStyle&quot;,&quot;elbow&quot;:&quot;vertical&quot;,&quot;curved&quot;:0,&quot;rounded&quot;:0};rounded=1;sketch=1;hachureGap=4;jiggle=2;curveFitting=1;fontFamily=Architects Daughter;fontSource=https%3A%2F%2Ffonts.googleapis.com%2Fcss%3Ffamily%3DArchitects%2BDaughter;fontSize=20;fillStyle=cross-hatch;fillColor=#B3B3B3;strokeColor=#B3B3B3;" parent="AZ1L6zL0LF5ouqsV8ztN-52" vertex="1">
          <mxGeometry x="580" y="150" width="10" height="630" as="geometry" />
        </mxCell>
        <mxCell id="AZ1L6zL0LF5ouqsV8ztN-56" value="Cliente" style="html=1;whiteSpace=wrap;rounded=1;sketch=1;hachureGap=4;jiggle=2;curveFitting=1;fontFamily=Architects Daughter;fontSource=https%3A%2F%2Ffonts.googleapis.com%2Fcss%3Ffamily%3DArchitects%2BDaughter;fontSize=20;fillStyle=cross-hatch;fillColor=#CCCCCC;fontStyle=1" parent="AZ1L6zL0LF5ouqsV8ztN-52" vertex="1">
          <mxGeometry x="220" y="100" width="110" height="50" as="geometry" />
        </mxCell>
        <mxCell id="AZ1L6zL0LF5ouqsV8ztN-57" value="&lt;b&gt;Sistema&lt;/b&gt;" style="whiteSpace=wrap;html=1;fontSize=20;fontFamily=Architects Daughter;rounded=1;sketch=1;hachureGap=4;jiggle=2;curveFitting=1;fontSource=https%3A%2F%2Ffonts.googleapis.com%2Fcss%3Ffamily%3DArchitects%2BDaughter;fillStyle=cross-hatch;fillColor=#CCCCCC;" parent="AZ1L6zL0LF5ouqsV8ztN-52" vertex="1">
          <mxGeometry x="840" y="95" width="120" height="60" as="geometry" />
        </mxCell>
        <mxCell id="AZ1L6zL0LF5ouqsV8ztN-72" style="edgeStyle=orthogonalEdgeStyle;rounded=1;sketch=1;hachureGap=4;jiggle=2;curveFitting=1;orthogonalLoop=1;jettySize=auto;html=1;entryX=0;entryY=0.5;entryDx=0;entryDy=0;fontFamily=Architects Daughter;fontSource=https%3A%2F%2Ffonts.googleapis.com%2Fcss%3Ffamily%3DArchitects%2BDaughter;fontSize=16;" parent="AZ1L6zL0LF5ouqsV8ztN-52" source="AZ1L6zL0LF5ouqsV8ztN-61" target="AZ1L6zL0LF5ouqsV8ztN-70" edge="1">
          <mxGeometry relative="1" as="geometry" />
        </mxCell>
        <mxCell id="AZ1L6zL0LF5ouqsV8ztN-61" value="" style="ellipse;fillColor=strokeColor;html=1;rounded=1;sketch=1;hachureGap=4;jiggle=2;curveFitting=1;fontFamily=Architects Daughter;fontSource=https%3A%2F%2Ffonts.googleapis.com%2Fcss%3Ffamily%3DArchitects%2BDaughter;fontSize=20;strokeColor=#FF0000;" parent="AZ1L6zL0LF5ouqsV8ztN-52" vertex="1">
          <mxGeometry x="50" y="216" width="30" height="30" as="geometry" />
        </mxCell>
        <mxCell id="AZ1L6zL0LF5ouqsV8ztN-69" value="" style="edgeStyle=orthogonalEdgeStyle;rounded=1;sketch=1;hachureGap=4;jiggle=2;curveFitting=1;orthogonalLoop=1;jettySize=auto;html=1;fontFamily=Architects Daughter;fontSource=https%3A%2F%2Ffonts.googleapis.com%2Fcss%3Ffamily%3DArchitects%2BDaughter;fontSize=16;" parent="AZ1L6zL0LF5ouqsV8ztN-52" source="AZ1L6zL0LF5ouqsV8ztN-62" target="AZ1L6zL0LF5ouqsV8ztN-68" edge="1">
          <mxGeometry relative="1" as="geometry" />
        </mxCell>
        <mxCell id="AZ1L6zL0LF5ouqsV8ztN-62" value="Escolher operação&amp;nbsp;" style="rounded=1;whiteSpace=wrap;html=1;arcSize=40;fontColor=#000000;fillColor=none;strokeColor=#000000;sketch=1;hachureGap=4;jiggle=2;curveFitting=1;fontFamily=Architects Daughter;fontSource=https%3A%2F%2Ffonts.googleapis.com%2Fcss%3Ffamily%3DArchitects%2BDaughter;fontSize=20;" parent="AZ1L6zL0LF5ouqsV8ztN-52" vertex="1">
          <mxGeometry x="360" y="202" width="130" height="58" as="geometry" />
        </mxCell>
        <mxCell id="AZ1L6zL0LF5ouqsV8ztN-76" style="edgeStyle=orthogonalEdgeStyle;rounded=1;sketch=1;hachureGap=4;jiggle=2;curveFitting=1;orthogonalLoop=1;jettySize=auto;html=1;entryX=1;entryY=0.5;entryDx=0;entryDy=0;fontFamily=Architects Daughter;fontSource=https%3A%2F%2Ffonts.googleapis.com%2Fcss%3Ffamily%3DArchitects%2BDaughter;fontSize=16;exitX=0.5;exitY=1;exitDx=0;exitDy=0;" parent="AZ1L6zL0LF5ouqsV8ztN-52" source="AZ1L6zL0LF5ouqsV8ztN-68" target="AZ1L6zL0LF5ouqsV8ztN-74" edge="1">
          <mxGeometry relative="1" as="geometry" />
        </mxCell>
        <mxCell id="AZ1L6zL0LF5ouqsV8ztN-68" value="Listar métodos de pagamento" style="rounded=1;whiteSpace=wrap;html=1;arcSize=40;fontColor=#000000;fillColor=none;strokeColor=#000000;sketch=1;hachureGap=4;jiggle=2;curveFitting=1;fontFamily=Architects Daughter;fontSource=https%3A%2F%2Ffonts.googleapis.com%2Fcss%3Ffamily%3DArchitects%2BDaughter;fontSize=20;" parent="AZ1L6zL0LF5ouqsV8ztN-52" vertex="1">
          <mxGeometry x="660" y="191" width="130" height="80" as="geometry" />
        </mxCell>
        <mxCell id="AZ1L6zL0LF5ouqsV8ztN-73" style="edgeStyle=orthogonalEdgeStyle;rounded=1;sketch=1;hachureGap=4;jiggle=2;curveFitting=1;orthogonalLoop=1;jettySize=auto;html=1;entryX=0;entryY=0.5;entryDx=0;entryDy=0;fontFamily=Architects Daughter;fontSource=https%3A%2F%2Ffonts.googleapis.com%2Fcss%3Ffamily%3DArchitects%2BDaughter;fontSize=16;" parent="AZ1L6zL0LF5ouqsV8ztN-52" source="AZ1L6zL0LF5ouqsV8ztN-70" target="AZ1L6zL0LF5ouqsV8ztN-62" edge="1">
          <mxGeometry relative="1" as="geometry" />
        </mxCell>
        <mxCell id="AZ1L6zL0LF5ouqsV8ztN-70" value="Abrir aplicativo" style="rounded=1;whiteSpace=wrap;html=1;arcSize=40;fontColor=#000000;fillColor=none;strokeColor=#000000;sketch=1;hachureGap=4;jiggle=2;curveFitting=1;fontFamily=Architects Daughter;fontSource=https%3A%2F%2Ffonts.googleapis.com%2Fcss%3Ffamily%3DArchitects%2BDaughter;fontSize=20;" parent="AZ1L6zL0LF5ouqsV8ztN-52" vertex="1">
          <mxGeometry x="160" y="202" width="130" height="58" as="geometry" />
        </mxCell>
        <mxCell id="j47EnYXxjhjXlssrLALJ-6" style="edgeStyle=orthogonalEdgeStyle;rounded=0;orthogonalLoop=1;jettySize=auto;html=1;sketch=1;curveFitting=1;jiggle=2;" edge="1" parent="AZ1L6zL0LF5ouqsV8ztN-52" source="AZ1L6zL0LF5ouqsV8ztN-74" target="j47EnYXxjhjXlssrLALJ-5">
          <mxGeometry relative="1" as="geometry">
            <Array as="points">
              <mxPoint x="324" y="334" />
              <mxPoint x="324" y="334" />
            </Array>
          </mxGeometry>
        </mxCell>
        <mxCell id="AZ1L6zL0LF5ouqsV8ztN-74" value="Selecionar método" style="rounded=1;whiteSpace=wrap;html=1;arcSize=40;fontColor=#000000;fillColor=none;strokeColor=#000000;sketch=1;hachureGap=4;jiggle=2;curveFitting=1;fontFamily=Architects Daughter;fontSource=https%3A%2F%2Ffonts.googleapis.com%2Fcss%3Ffamily%3DArchitects%2BDaughter;fontSize=20;" parent="AZ1L6zL0LF5ouqsV8ztN-52" vertex="1">
          <mxGeometry x="360" y="307" width="130" height="53" as="geometry" />
        </mxCell>
        <mxCell id="j47EnYXxjhjXlssrLALJ-12" style="edgeStyle=orthogonalEdgeStyle;rounded=0;sketch=1;hachureGap=4;jiggle=2;curveFitting=1;orthogonalLoop=1;jettySize=auto;html=1;entryX=0.5;entryY=0;entryDx=0;entryDy=0;fontFamily=Architects Daughter;fontSource=https%3A%2F%2Ffonts.googleapis.com%2Fcss%3Ffamily%3DArchitects%2BDaughter;fontSize=16;" edge="1" parent="AZ1L6zL0LF5ouqsV8ztN-52" source="j47EnYXxjhjXlssrLALJ-5" target="j47EnYXxjhjXlssrLALJ-11">
          <mxGeometry relative="1" as="geometry" />
        </mxCell>
        <mxCell id="j47EnYXxjhjXlssrLALJ-15" value="Não" style="edgeLabel;html=1;align=center;verticalAlign=middle;resizable=0;points=[];fontSize=20;fontFamily=Architects Daughter;" vertex="1" connectable="0" parent="j47EnYXxjhjXlssrLALJ-12">
          <mxGeometry x="0.0778" y="3" relative="1" as="geometry">
            <mxPoint as="offset" />
          </mxGeometry>
        </mxCell>
        <mxCell id="j47EnYXxjhjXlssrLALJ-18" value="Sim" style="edgeStyle=orthogonalEdgeStyle;rounded=0;sketch=1;hachureGap=4;jiggle=2;curveFitting=1;orthogonalLoop=1;jettySize=auto;html=1;entryX=0.5;entryY=0;entryDx=0;entryDy=0;fontFamily=Architects Daughter;fontSource=https%3A%2F%2Ffonts.googleapis.com%2Fcss%3Ffamily%3DArchitects%2BDaughter;fontSize=16;" edge="1" parent="AZ1L6zL0LF5ouqsV8ztN-52" source="j47EnYXxjhjXlssrLALJ-5" target="j47EnYXxjhjXlssrLALJ-7">
          <mxGeometry relative="1" as="geometry" />
        </mxCell>
        <mxCell id="j47EnYXxjhjXlssrLALJ-5" value="Pagar fatura" style="rhombus;whiteSpace=wrap;html=1;fontColor=#000000;fillColor=#FF9999;strokeColor=#000000;rounded=1;sketch=1;hachureGap=4;jiggle=2;curveFitting=1;fontFamily=Architects Daughter;fontSource=https%3A%2F%2Ffonts.googleapis.com%2Fcss%3Ffamily%3DArchitects%2BDaughter;fontSize=20;fillStyle=cross-hatch;" vertex="1" parent="AZ1L6zL0LF5ouqsV8ztN-52">
          <mxGeometry x="162.5" y="289.88" width="125" height="87.25" as="geometry" />
        </mxCell>
        <mxCell id="j47EnYXxjhjXlssrLALJ-29" style="edgeStyle=orthogonalEdgeStyle;rounded=0;sketch=1;hachureGap=4;jiggle=2;curveFitting=1;orthogonalLoop=1;jettySize=auto;html=1;entryX=0.054;entryY=0.527;entryDx=0;entryDy=0;entryPerimeter=0;fontFamily=Architects Daughter;fontSource=https%3A%2F%2Ffonts.googleapis.com%2Fcss%3Ffamily%3DArchitects%2BDaughter;fontSize=16;" edge="1" parent="AZ1L6zL0LF5ouqsV8ztN-52" source="j47EnYXxjhjXlssrLALJ-7" target="j47EnYXxjhjXlssrLALJ-23">
          <mxGeometry relative="1" as="geometry">
            <Array as="points">
              <mxPoint x="380" y="452" />
              <mxPoint x="380" y="452" />
            </Array>
          </mxGeometry>
        </mxCell>
        <mxCell id="j47EnYXxjhjXlssrLALJ-7" value="Especificar valor à pagar" style="rounded=1;whiteSpace=wrap;html=1;arcSize=40;fontColor=#000000;fillColor=none;strokeColor=#000000;sketch=1;hachureGap=4;jiggle=2;curveFitting=1;fontFamily=Architects Daughter;fontSource=https%3A%2F%2Ffonts.googleapis.com%2Fcss%3Ffamily%3DArchitects%2BDaughter;fontSize=20;" vertex="1" parent="AZ1L6zL0LF5ouqsV8ztN-52">
          <mxGeometry x="155" y="427" width="140" height="56" as="geometry" />
        </mxCell>
        <mxCell id="j47EnYXxjhjXlssrLALJ-13" style="edgeStyle=orthogonalEdgeStyle;rounded=0;sketch=1;hachureGap=4;jiggle=2;curveFitting=1;orthogonalLoop=1;jettySize=auto;html=1;entryX=0.5;entryY=0;entryDx=0;entryDy=0;fontFamily=Architects Daughter;fontSource=https%3A%2F%2Ffonts.googleapis.com%2Fcss%3Ffamily%3DArchitects%2BDaughter;fontSize=16;exitX=0;exitY=0.5;exitDx=0;exitDy=0;" edge="1" parent="AZ1L6zL0LF5ouqsV8ztN-52" source="j47EnYXxjhjXlssrLALJ-11" target="AZ1L6zL0LF5ouqsV8ztN-74">
          <mxGeometry relative="1" as="geometry">
            <Array as="points">
              <mxPoint x="30" y="521" />
              <mxPoint x="30" y="277" />
              <mxPoint x="425" y="277" />
            </Array>
          </mxGeometry>
        </mxCell>
        <mxCell id="j47EnYXxjhjXlssrLALJ-14" value="Não" style="edgeLabel;html=1;align=center;verticalAlign=middle;resizable=0;points=[];fontSize=20;fontFamily=Architects Daughter;" vertex="1" connectable="0" parent="j47EnYXxjhjXlssrLALJ-13">
          <mxGeometry x="-0.5591" y="-2" relative="1" as="geometry">
            <mxPoint as="offset" />
          </mxGeometry>
        </mxCell>
        <mxCell id="j47EnYXxjhjXlssrLALJ-17" value="Sim" style="edgeStyle=orthogonalEdgeStyle;rounded=0;sketch=1;hachureGap=4;jiggle=2;curveFitting=1;orthogonalLoop=1;jettySize=auto;html=1;fontFamily=Architects Daughter;fontSource=https%3A%2F%2Ffonts.googleapis.com%2Fcss%3Ffamily%3DArchitects%2BDaughter;fontSize=16;" edge="1" parent="AZ1L6zL0LF5ouqsV8ztN-52" source="j47EnYXxjhjXlssrLALJ-11" target="j47EnYXxjhjXlssrLALJ-16">
          <mxGeometry relative="1" as="geometry" />
        </mxCell>
        <mxCell id="j47EnYXxjhjXlssrLALJ-11" value="Pagar boleto" style="rhombus;whiteSpace=wrap;html=1;fontColor=#000000;fillColor=#FF9999;strokeColor=#000000;rounded=1;sketch=1;hachureGap=4;jiggle=2;curveFitting=1;fontFamily=Architects Daughter;fontSource=https%3A%2F%2Ffonts.googleapis.com%2Fcss%3Ffamily%3DArchitects%2BDaughter;fontSize=20;fillStyle=cross-hatch;" vertex="1" parent="AZ1L6zL0LF5ouqsV8ztN-52">
          <mxGeometry x="40" y="477" width="120" height="87.25" as="geometry" />
        </mxCell>
        <mxCell id="j47EnYXxjhjXlssrLALJ-45" value="" style="edgeStyle=orthogonalEdgeStyle;rounded=0;sketch=1;hachureGap=4;jiggle=2;curveFitting=1;orthogonalLoop=1;jettySize=auto;html=1;fontFamily=Architects Daughter;fontSource=https%3A%2F%2Ffonts.googleapis.com%2Fcss%3Ffamily%3DArchitects%2BDaughter;fontSize=16;" edge="1" parent="AZ1L6zL0LF5ouqsV8ztN-52" source="j47EnYXxjhjXlssrLALJ-16" target="j47EnYXxjhjXlssrLALJ-44">
          <mxGeometry relative="1" as="geometry" />
        </mxCell>
        <mxCell id="j47EnYXxjhjXlssrLALJ-16" value="Ler código de barras" style="rounded=1;whiteSpace=wrap;html=1;arcSize=40;fontColor=#000000;fillColor=none;strokeColor=#000000;sketch=1;hachureGap=4;jiggle=2;curveFitting=1;fontFamily=Architects Daughter;fontSource=https%3A%2F%2Ffonts.googleapis.com%2Fcss%3Ffamily%3DArchitects%2BDaughter;fontSize=20;" vertex="1" parent="AZ1L6zL0LF5ouqsV8ztN-52">
          <mxGeometry x="620" y="494.13" width="130" height="53" as="geometry" />
        </mxCell>
        <mxCell id="j47EnYXxjhjXlssrLALJ-26" value="Sim" style="edgeStyle=orthogonalEdgeStyle;rounded=0;sketch=1;hachureGap=4;jiggle=2;curveFitting=1;orthogonalLoop=1;jettySize=auto;html=1;entryX=1;entryY=0.5;entryDx=0;entryDy=0;fontFamily=Architects Daughter;fontSource=https%3A%2F%2Ffonts.googleapis.com%2Fcss%3Ffamily%3DArchitects%2BDaughter;fontSize=16;exitX=0.5;exitY=1;exitDx=0;exitDy=0;" edge="1" parent="AZ1L6zL0LF5ouqsV8ztN-52" source="j47EnYXxjhjXlssrLALJ-23" target="j47EnYXxjhjXlssrLALJ-24">
          <mxGeometry relative="1" as="geometry" />
        </mxCell>
        <mxCell id="j47EnYXxjhjXlssrLALJ-28" value="Não" style="edgeStyle=orthogonalEdgeStyle;rounded=0;sketch=1;hachureGap=4;jiggle=2;curveFitting=1;orthogonalLoop=1;jettySize=auto;html=1;entryX=0;entryY=0.5;entryDx=0;entryDy=0;fontFamily=Architects Daughter;fontSource=https%3A%2F%2Ffonts.googleapis.com%2Fcss%3Ffamily%3DArchitects%2BDaughter;fontSize=16;" edge="1" parent="AZ1L6zL0LF5ouqsV8ztN-52" source="j47EnYXxjhjXlssrLALJ-23" target="j47EnYXxjhjXlssrLALJ-27">
          <mxGeometry x="-0.0001" relative="1" as="geometry">
            <mxPoint as="offset" />
          </mxGeometry>
        </mxCell>
        <mxCell id="j47EnYXxjhjXlssrLALJ-23" value="Pagar c/ saldo" style="rhombus;whiteSpace=wrap;html=1;fontColor=#000000;fillColor=#FF9999;strokeColor=#000000;rounded=1;sketch=1;hachureGap=4;jiggle=2;curveFitting=1;fontFamily=Architects Daughter;fontSource=https%3A%2F%2Ffonts.googleapis.com%2Fcss%3Ffamily%3DArchitects%2BDaughter;fontSize=20;fillStyle=cross-hatch;" vertex="1" parent="AZ1L6zL0LF5ouqsV8ztN-52">
          <mxGeometry x="800" y="401.18" width="130" height="98.63" as="geometry" />
        </mxCell>
        <mxCell id="j47EnYXxjhjXlssrLALJ-40" style="edgeStyle=orthogonalEdgeStyle;rounded=0;sketch=1;hachureGap=4;jiggle=2;curveFitting=1;orthogonalLoop=1;jettySize=auto;html=1;entryX=0.5;entryY=0;entryDx=0;entryDy=0;fontFamily=Architects Daughter;fontSource=https%3A%2F%2Ffonts.googleapis.com%2Fcss%3Ffamily%3DArchitects%2BDaughter;fontSize=16;" edge="1" parent="AZ1L6zL0LF5ouqsV8ztN-52" source="j47EnYXxjhjXlssrLALJ-24" target="j47EnYXxjhjXlssrLALJ-39">
          <mxGeometry relative="1" as="geometry" />
        </mxCell>
        <mxCell id="j47EnYXxjhjXlssrLALJ-24" value="Informar senha" style="rounded=1;whiteSpace=wrap;html=1;arcSize=40;fontColor=#000000;fillColor=none;strokeColor=#000000;sketch=1;hachureGap=4;jiggle=2;curveFitting=1;fontFamily=Architects Daughter;fontSource=https%3A%2F%2Ffonts.googleapis.com%2Fcss%3Ffamily%3DArchitects%2BDaughter;fontSize=20;" vertex="1" parent="AZ1L6zL0LF5ouqsV8ztN-52">
          <mxGeometry x="430" y="647" width="130" height="53" as="geometry" />
        </mxCell>
        <mxCell id="j47EnYXxjhjXlssrLALJ-27" value="Gerar boleto" style="rounded=1;whiteSpace=wrap;html=1;arcSize=40;fontColor=#000000;fillColor=none;strokeColor=#000000;sketch=1;hachureGap=4;jiggle=2;curveFitting=1;fontFamily=Architects Daughter;fontSource=https%3A%2F%2Ffonts.googleapis.com%2Fcss%3Ffamily%3DArchitects%2BDaughter;fontSize=20;" vertex="1" parent="AZ1L6zL0LF5ouqsV8ztN-52">
          <mxGeometry x="1000" y="424" width="130" height="53" as="geometry" />
        </mxCell>
        <mxCell id="j47EnYXxjhjXlssrLALJ-43" style="edgeStyle=orthogonalEdgeStyle;rounded=0;sketch=1;hachureGap=4;jiggle=2;curveFitting=1;orthogonalLoop=1;jettySize=auto;html=1;entryX=1;entryY=0.5;entryDx=0;entryDy=0;fontFamily=Architects Daughter;fontSource=https%3A%2F%2Ffonts.googleapis.com%2Fcss%3Ffamily%3DArchitects%2BDaughter;fontSize=16;" edge="1" parent="AZ1L6zL0LF5ouqsV8ztN-52" source="j47EnYXxjhjXlssrLALJ-39" target="j47EnYXxjhjXlssrLALJ-42">
          <mxGeometry relative="1" as="geometry" />
        </mxCell>
        <mxCell id="j47EnYXxjhjXlssrLALJ-39" value="Efetuar pagamento" style="rounded=1;whiteSpace=wrap;html=1;arcSize=40;fontColor=#000000;fillColor=none;strokeColor=#000000;sketch=1;hachureGap=4;jiggle=2;curveFitting=1;fontFamily=Architects Daughter;fontSource=https%3A%2F%2Ffonts.googleapis.com%2Fcss%3Ffamily%3DArchitects%2BDaughter;fontSize=20;" vertex="1" parent="AZ1L6zL0LF5ouqsV8ztN-52">
          <mxGeometry x="360" y="737" width="130" height="57" as="geometry" />
        </mxCell>
        <mxCell id="j47EnYXxjhjXlssrLALJ-42" value="" style="ellipse;html=1;shape=endState;fillColor=strokeColor;rounded=1;sketch=1;hachureGap=4;jiggle=2;curveFitting=1;fontFamily=Architects Daughter;fontSource=https%3A%2F%2Ffonts.googleapis.com%2Fcss%3Ffamily%3DArchitects%2BDaughter;fontSize=20;strokeColor=#FF0000;" vertex="1" parent="AZ1L6zL0LF5ouqsV8ztN-52">
          <mxGeometry x="240" y="750.5" width="30" height="30" as="geometry" />
        </mxCell>
        <mxCell id="j47EnYXxjhjXlssrLALJ-31" value="Enviar por e-mail" style="rounded=1;whiteSpace=wrap;html=1;arcSize=40;fontColor=#000000;fillColor=none;strokeColor=#000000;sketch=1;hachureGap=4;jiggle=2;curveFitting=1;fontFamily=Architects Daughter;fontSource=https%3A%2F%2Ffonts.googleapis.com%2Fcss%3Ffamily%3DArchitects%2BDaughter;fontSize=20;" vertex="1" parent="AZ1L6zL0LF5ouqsV8ztN-52">
          <mxGeometry x="890" y="604" width="120" height="53" as="geometry" />
        </mxCell>
        <mxCell id="j47EnYXxjhjXlssrLALJ-33" value="Copiar código pix" style="rounded=1;whiteSpace=wrap;html=1;arcSize=40;fontColor=#000000;fillColor=none;strokeColor=#000000;sketch=1;hachureGap=4;jiggle=2;curveFitting=1;fontFamily=Architects Daughter;fontSource=https%3A%2F%2Ffonts.googleapis.com%2Fcss%3Ffamily%3DArchitects%2BDaughter;fontSize=20;" vertex="1" parent="AZ1L6zL0LF5ouqsV8ztN-52">
          <mxGeometry x="1030" y="604" width="120" height="50" as="geometry" />
        </mxCell>
        <mxCell id="j47EnYXxjhjXlssrLALJ-34" style="edgeStyle=orthogonalEdgeStyle;rounded=1;sketch=1;hachureGap=4;jiggle=2;curveFitting=1;orthogonalLoop=1;jettySize=auto;html=1;entryX=0.5;entryY=0;entryDx=0;entryDy=0;fontFamily=Architects Daughter;fontSource=https%3A%2F%2Ffonts.googleapis.com%2Fcss%3Ffamily%3DArchitects%2BDaughter;fontSize=16;" edge="1" parent="AZ1L6zL0LF5ouqsV8ztN-52" source="j47EnYXxjhjXlssrLALJ-36" target="j47EnYXxjhjXlssrLALJ-31">
          <mxGeometry relative="1" as="geometry" />
        </mxCell>
        <mxCell id="j47EnYXxjhjXlssrLALJ-35" style="edgeStyle=orthogonalEdgeStyle;rounded=1;sketch=1;hachureGap=4;jiggle=2;curveFitting=1;orthogonalLoop=1;jettySize=auto;html=1;entryX=0.5;entryY=0;entryDx=0;entryDy=0;fontFamily=Architects Daughter;fontSource=https%3A%2F%2Ffonts.googleapis.com%2Fcss%3Ffamily%3DArchitects%2BDaughter;fontSize=16;" edge="1" parent="AZ1L6zL0LF5ouqsV8ztN-52" source="j47EnYXxjhjXlssrLALJ-36" target="j47EnYXxjhjXlssrLALJ-33">
          <mxGeometry relative="1" as="geometry" />
        </mxCell>
        <mxCell id="j47EnYXxjhjXlssrLALJ-36" value="" style="html=1;points=[];perimeter=orthogonalPerimeter;fillColor=strokeColor;rounded=1;sketch=1;hachureGap=4;jiggle=2;curveFitting=1;fontFamily=Architects Daughter;fontSource=https%3A%2F%2Ffonts.googleapis.com%2Fcss%3Ffamily%3DArchitects%2BDaughter;fontSize=20;direction=south;strokeColor=#FF6666;" vertex="1" parent="AZ1L6zL0LF5ouqsV8ztN-52">
          <mxGeometry x="890" y="557" width="260" height="5" as="geometry" />
        </mxCell>
        <mxCell id="j47EnYXxjhjXlssrLALJ-38" style="edgeStyle=orthogonalEdgeStyle;rounded=0;sketch=1;hachureGap=4;jiggle=2;curveFitting=1;orthogonalLoop=1;jettySize=auto;html=1;entryX=-0.2;entryY=0.496;entryDx=0;entryDy=0;entryPerimeter=0;fontFamily=Architects Daughter;fontSource=https%3A%2F%2Ffonts.googleapis.com%2Fcss%3Ffamily%3DArchitects%2BDaughter;fontSize=16;" edge="1" parent="AZ1L6zL0LF5ouqsV8ztN-52" source="j47EnYXxjhjXlssrLALJ-27" target="j47EnYXxjhjXlssrLALJ-36">
          <mxGeometry relative="1" as="geometry" />
        </mxCell>
        <mxCell id="j47EnYXxjhjXlssrLALJ-37" value="" style="html=1;points=[];perimeter=orthogonalPerimeter;fillColor=strokeColor;rounded=1;sketch=1;hachureGap=4;jiggle=2;curveFitting=1;fontFamily=Architects Daughter;fontSource=https%3A%2F%2Ffonts.googleapis.com%2Fcss%3Ffamily%3DArchitects%2BDaughter;fontSize=20;direction=south;strokeColor=#FF6666;" vertex="1" parent="AZ1L6zL0LF5ouqsV8ztN-52">
          <mxGeometry x="890" y="702" width="260" height="5" as="geometry" />
        </mxCell>
        <mxCell id="j47EnYXxjhjXlssrLALJ-41" style="edgeStyle=orthogonalEdgeStyle;rounded=0;sketch=1;hachureGap=4;jiggle=2;curveFitting=1;orthogonalLoop=1;jettySize=auto;html=1;entryX=1;entryY=0.5;entryDx=0;entryDy=0;fontFamily=Architects Daughter;fontSource=https%3A%2F%2Ffonts.googleapis.com%2Fcss%3Ffamily%3DArchitects%2BDaughter;fontSize=16;exitX=1.2;exitY=0.515;exitDx=0;exitDy=0;exitPerimeter=0;" edge="1" parent="AZ1L6zL0LF5ouqsV8ztN-52" source="j47EnYXxjhjXlssrLALJ-37" target="j47EnYXxjhjXlssrLALJ-39">
          <mxGeometry relative="1" as="geometry" />
        </mxCell>
        <mxCell id="j47EnYXxjhjXlssrLALJ-30" style="edgeStyle=orthogonalEdgeStyle;rounded=1;sketch=1;hachureGap=4;jiggle=2;curveFitting=1;orthogonalLoop=1;jettySize=auto;html=1;entryX=0.4;entryY=0.546;entryDx=0;entryDy=0;entryPerimeter=0;fontFamily=Architects Daughter;fontSource=https%3A%2F%2Ffonts.googleapis.com%2Fcss%3Ffamily%3DArchitects%2BDaughter;fontSize=16;" edge="1" parent="AZ1L6zL0LF5ouqsV8ztN-52" source="j47EnYXxjhjXlssrLALJ-31" target="j47EnYXxjhjXlssrLALJ-37">
          <mxGeometry relative="1" as="geometry" />
        </mxCell>
        <mxCell id="j47EnYXxjhjXlssrLALJ-32" style="edgeStyle=orthogonalEdgeStyle;rounded=1;sketch=1;hachureGap=4;jiggle=2;curveFitting=1;orthogonalLoop=1;jettySize=auto;html=1;entryX=0.4;entryY=0.477;entryDx=0;entryDy=0;entryPerimeter=0;fontFamily=Architects Daughter;fontSource=https%3A%2F%2Ffonts.googleapis.com%2Fcss%3Ffamily%3DArchitects%2BDaughter;fontSize=16;" edge="1" parent="AZ1L6zL0LF5ouqsV8ztN-52" source="j47EnYXxjhjXlssrLALJ-33" target="j47EnYXxjhjXlssrLALJ-37">
          <mxGeometry relative="1" as="geometry" />
        </mxCell>
        <mxCell id="j47EnYXxjhjXlssrLALJ-46" style="edgeStyle=orthogonalEdgeStyle;rounded=0;sketch=1;hachureGap=4;jiggle=2;curveFitting=1;orthogonalLoop=1;jettySize=auto;html=1;entryX=0.5;entryY=0;entryDx=0;entryDy=0;fontFamily=Architects Daughter;fontSource=https%3A%2F%2Ffonts.googleapis.com%2Fcss%3Ffamily%3DArchitects%2BDaughter;fontSize=16;" edge="1" parent="AZ1L6zL0LF5ouqsV8ztN-52" source="j47EnYXxjhjXlssrLALJ-44" target="j47EnYXxjhjXlssrLALJ-24">
          <mxGeometry relative="1" as="geometry" />
        </mxCell>
        <mxCell id="j47EnYXxjhjXlssrLALJ-44" value="Agendar pagamento" style="rounded=1;whiteSpace=wrap;html=1;arcSize=40;fontColor=#000000;fillColor=none;strokeColor=#000000;sketch=1;hachureGap=4;jiggle=2;curveFitting=1;fontFamily=Architects Daughter;fontSource=https%3A%2F%2Ffonts.googleapis.com%2Fcss%3Ffamily%3DArchitects%2BDaughter;fontSize=20;" vertex="1" parent="AZ1L6zL0LF5ouqsV8ztN-52">
          <mxGeometry x="620" y="587" width="130" height="53" as="geometry" />
        </mxCell>
      </root>
    </mxGraphModel>
  </diagram>
</mxfile>
